<?xml version="1.0" encoding="iso-8859-1"?>
<!-- Generator: Adobe Illustrator 19.0.0, SVG Export Plug-In . SVG Version: 6.00 Build 0)  -->
<svg version="1.1" id="Layer_1" xmlns="http://www.w3.org/2000/svg" xmlns:xlink="http://www.w3.org/1999/xlink" x="0px" y="0px"
	 viewBox="0 0 496.158 496.158" style="enable-background:new 0 0 496.158 496.158;" xml:space="preserve">
<path style="fill:#48A1AF;" d="M0,248.085C0,111.063,111.07,0.002,248.076,0.002c137.012,0,248.082,111.061,248.082,248.082
	c0,137.002-111.07,248.071-248.082,248.071C111.07,496.155,0,385.086,0,248.085z"/>
<g>
	<path style="fill:#FFFFFF;" d="M208.121,236.937l149.525-91.812c4.082-2.506,9.453-2.615,13.633-0.275
		c4.254,2.379,6.896,6.887,6.896,11.762v182.901c0,4.867-2.633,9.369-6.877,11.754c-2.01,1.129-4.293,1.727-6.602,1.727
		c-2.475,0-4.9-0.682-7.012-1.969l-149.523-91.088c-3.98-2.424-6.459-6.826-6.467-11.489
		C201.687,243.787,204.15,239.375,208.121,236.937z"/>
	<path style="fill:#FFFFFF;" d="M126.564,139.057h51.508c4.74,0,8.584,3.844,8.584,8.584v200.877c0,4.74-3.844,8.584-8.584,8.584
		h-51.508c-4.74,0-8.582-3.844-8.582-8.584V147.64C117.982,142.9,121.824,139.057,126.564,139.057z"/>
</g>
<g>
</g>
<g>
</g>
<g>
</g>
<g>
</g>
<g>
</g>
<g>
</g>
<g>
</g>
<g>
</g>
<g>
</g>
<g>
</g>
<g>
</g>
<g>
</g>
<g>
</g>
<g>
</g>
<g>
</g>
</svg>
